<svg version="1.0" xmlns="http://www.w3.org/2000/svg" width="1408" height="1408" viewBox="0 0 1056 1056"><path d="M406.9 112.5c-.2.1-4.7.6-9.9 1-12.7 1-16 1.3-19 1.9-1.4.2-4.7.7-7.5 1-2.7.3-7.5 1-10.5 1.6-3 .6-6.7 1.3-8.2 1.5-1.5.2-3.5.6-4.5.9-1 .3-3.4.8-5.3 1.1-1.9.3-5.3 1.1-7.5 1.6-2.2.6-4.1 1.1-4.2 1.1-.2-.1-1.7.4-3.5.9-1.8.6-4.2 1.2-5.3 1.4-3.1.7-15.9 4.7-17 5.3-.5.3-1.6.7-2.5.8-5.7.6-58.7 22.6-61 25.3-.3.3-3 1.8-6 3.3-6.9 3.4-15.3 8.1-16 8.9-.3.3-2 1.4-3.9 2.4-1.9.9-3.9 2.1-4.5 2.6-.6.5-4.7 3.3-9.1 6.1-4.4 2.9-8.4 5.6-9 6.1-.5.4-3.5 2.6-6.5 4.8-8.8 6.4-11 8.1-17.4 13.3-10.4 8.4-22.6 19.6-34.1 31.3-9.9 10-13 13.4-23 25.3-1.6 1.9-3.2 3.7-3.5 4-.3.3-4.4 5.7-9.2 12C87.3 293.5 72 316.7 72 318.9c0 .6-.3 1.1-.8 1.1-.4 0-1.3 1.5-2.1 3.2-.8 1.8-1.7 3.5-2.1 3.8-.7.6-17 33.4-17 34.3 0 .4-1.1 3-2.4 5.9-1.3 2.9-3.1 7.5-4.1 10.3-1 2.7-2.3 5.6-2.8 6.2-.5.7-.6 1.3-.3 1.3.4 0 .2.9-.4 2.1-.6 1.1-1.3 2.8-1.5 3.7-.2.9-1.5 5-2.9 9-1.4 4.1-2.8 8.3-3 9.5-.3 1.2-1 3.8-1.6 5.7-2.5 7.9-7.5 29.9-9.5 42-2 11.6 9.2 23.6 21.5 23.3 6.8-.2 12.2-2.5 17-7.3 2.8-2.8 5.1-9 7.6-20.3 1.3-6.2 3.3-14.8 4.4-19.2 1.2-4.4 2.3-8.7 2.5-9.5.2-.8.4-1.6.5-1.8.2-.1.4-.7.5-1.2.1-.6.3-1.1.5-1.3.1-.1.3-.9.5-1.7 1.1-4.9 7.9-23.5 13.4-36.7 9.6-23 30.8-59.7 43.8-75.8 1.3-1.7 3.7-4.6 5.1-6.6 10.8-14.3 33.5-38.3 47.7-50.4 3.2-2.8 6.3-5.5 6.9-6 1.3-1.2 11.1-8.9 16.3-12.8 15-11.3 35.3-24 49.3-30.9 3.6-1.8 6.7-3.6 6.8-4 .2-.4.8-.8 1.2-.8.5 0 4.6-1.7 9.2-3.9 13.9-6.4 42-16.9 50-18.7 3.9-.9 5.3-1.2 5.3-1.4 0-.1.8-.3 1.7-.5.9-.2 3.2-.8 5-1.4 1.8-.6 4.4-1.2 5.8-1.5 1.4-.2 4.3-.9 6.5-1.4 2.2-.6 5.4-1.3 7-1.6 1.7-.2 5.5-.9 8.5-1.5s7.1-1.3 9-1.5c1.9-.3 3.5-.5 3.5-.6 0-.1 1.8-.3 4-.5 2.2-.3 5.6-.7 7.5-.9 22-2.9 69.3-2.4 90 .9 1.9.4 5.1.8 7 1.1 10 1.4 18.9 3.2 30.4 6 3.4.8 6.8 1.6 7.6 1.8 8.2 2 31.5 9.3 36.8 11.6 1.2.6 3.2 1.4 4.5 1.9 3.9 1.5 13 5.4 18.4 7.8 2.9 1.3 5.4 2.3 5.5 2.3.2-.1 4.5 2.2 9.6 4.9 5.1 2.8 9.7 5.1 10.2 5.1.4 0 1 .3 1.2.7.3.8 3.3 2.6 10.3 6.1 1.7.9 3.9 2.4 4.9 3.4 1.1 1 2.3 1.8 2.8 1.8.6 0 17.6 11.3 21.3 14.2.6.4 6.9 5.5 14.1 11.3 19.2 15.3 44 40.3 57.7 58.2 13.6 17.7 41.9 9.3 41.2-12.2-.1-3.3-.8-7.1-1.6-8.5-1.2-2.1-10.8-14.6-14.4-18.7-15.9-18.2-35.3-37.5-47.4-47.3-2.4-1.9-4.8-4-5.5-4.6-3.1-2.8-20-15.7-27.1-20.4-4.4-3-8.1-5.8-8.3-6.2-.2-.5-.7-.8-1.2-.8-.4 0-5.1-2.7-10.3-6-5.3-3.3-10.1-6-10.6-6-.6 0-1.1-.3-1.1-.8 0-.4-2-1.6-4.5-2.7s-4.5-2.4-4.5-2.9-.3-.6-.6-.3c-.4.4-2-.3-3.5-1.4-1.6-1.1-2.9-1.7-2.9-1.3 0 .4-.8 0-1.7-.8-3.2-2.6-43.2-20-49.3-21.3-.8-.2-2.8-.9-4.5-1.5-6.7-2.7-33.5-10.3-40.5-11.5-1.8-.3-3.6-.7-3.9-.9-.7-.4-7.5-1.8-10.6-2.1-1.1-.1-2.9-.4-4-.8-1.1-.3-4-.8-6.5-1.2-2.5-.3-5.4-.7-6.5-.9-1.1-.2-4.2-.7-7-1-2.7-.4-6.8-.9-9-1.2-2.2-.2-6.2-.7-9-1-6-.6-60.1-1.4-60.6-.9z"/><path d="M421 242.3c-.3.3-2.3.8-4.5 1.2-7.3 1.2-6.7 1-16.4 5.2-3 1.3-7 3.5-8.7 4.8-1.8 1.4-3.6 2.5-3.9 2.5-1.2 0-12.1 11.6-15.3 16.2-2.7 3.9-9 16-32.5 62.3-7.2 14.1-12.5 22.3-18.1 28-4.5 4.5-12 10.5-13.1 10.5-.4 0-1.9.8-3.3 1.8-4.4 2.9-14.4 6.6-21.2 7.7-1.9.3-4.8.8-6.5 1.1-1.6.3-4.1.7-5.5.9-1.4.2-3.8.6-5.5.9-6.6 1.1-34.1 5.6-38 6.1-21.8 2.9-38.4 7.6-43.6 12.1-.8.8-2 1.4-2.5 1.4s-2.4 1.4-4.1 3.1c-1.8 1.6-3.3 2.8-3.3 2.5 0-.6-10.5 11-11.8 13-2.3 3.5-3.4 5.4-5.2 9.1-3.4 7.2-4.2 9.5-5.9 17.6-2.3 10.5-1.8 26 .9 33.3.5 1.3.8 2.4.6 2.4-.3 0 .9 2.7 2.5 6s2.9 6.5 2.9 7c0 .6.3 1 .8 1 .4 0 1.3 1.4 2.1 3.1 1.1 2.4 22.5 25 42.7 45.2.9.9-2.5-.2-4.1-1.3-1-.7-15.6-.6-18.5.2-7.7 1.9-24.2 14.6-26.3 20-.3 1-1.1 1.8-1.7 1.8-.5 0-1 .4-1 1 0 .5-1.3 3.1-2.9 5.7-1.6 2.7-4.4 8.3-6.1 12.6-16.7 41.7-7.7 88.5 19.5 101.7 9.9 4.8 24.6 2.3 37-6.4 6.3-4.4 16.8-16 20.1-22.1.6-1.1 2.2-4 3.5-6.5 1.4-2.5 3.6-7.4 4.8-11 1.3-3.6 2.5-7.2 2.8-8 .9-2.5 1.6-6.1 3-16 1.1-8.2.8-24.8-.6-30.6-.7-2.9-1.3-5.8-1.5-6.5-.1-.8-.8-2.5-1.5-3.8-1-1.8-1-2.2-.1-1.9 1.5.5 5.8 8.3 8.2 14.8 4.5 12.2 5.3 26.9 2.3 42.1-.2 1.4-.6 4.2-.7 6.2-.2 2-.5 3.7-.8 3.7-.3 0-.6 1.2-.6 2.7-.1 2.6-1.9 14.5-3 20.3-.3 1.4-.7 4.1-.9 6-.3 1.9-.7 4.6-1 6-.3 1.4-.7 4.3-1.1 6.5-.3 2.2-.8 5.3-1.1 7-2.4 13.6-2.2 26 .5 36.5 7.6 29.7 37.4 52.3 68.7 52.2 4.9-.1 9.9-.3 11-.5 8.5-2 12.2-3.1 13.3-4 .6-.5 1.2-.7 1.2-.4 0 .3 5.4-2.1 12-5.3 6.6-3.3 12.3-5.9 12.6-5.9.4 0 1-.3 1.3-.8.3-.5 4.2-2.7 8.6-4.9 4.4-2.2 13.5-6.8 20.2-10.2 6.8-3.4 12.6-6.2 12.9-6.1.4 0 1-.3 1.3-.8 1.3-1.8 17.5-7.8 22.1-8.3 14.8-1.3 25.7-.5 35 2.6 4.6 1.6 31.5 14.8 33.8 16.6.6.6 1.2.7 1.2.4 0-.4 1.2.1 2.8 1.2 2.4 1.7 4.8 2.8 7 3.3.4.1 2.3 1.2 4.2 2.3 6.4 4 34.6 17.6 36.4 17.6.9 0 2.5.4 3.4.9 2.3 1.2 13.4 2.4 20.6 2.3 6.4-.2 16.6-2.3 22.1-4.6 1.9-.8 3.5-1.2 3.5-.8 0 .4.4.2.8-.3.4-.6 2.8-2.1 5.4-3.3 2.5-1.3 5.5-3.2 6.7-4.3 1.1-1 2.2-1.9 2.5-1.9 1.1 0 7.3-6.1 11.7-11.7 10.5-13.1 15.7-28.7 15.3-45.8-.1-5-.3-9-.4-9-.1 0-.4-1.4-.6-3-2.3-15.2-5.4-34.6-5.9-36.5 0-.3-.5-3.2-.9-6.5-.5-3.3-1-7.1-1.3-8.5-.2-1.4-.6-4.1-.9-6-.3-1.9-.7-4.2-.8-5-.8-4.6-1.9-13.9-2-16.5 0-5.7 1.5-17.9 2.3-18.9.5-.6 1-1.6 1.1-2.1.6-5 4.2-12.9 9.3-20.5 2.7-4.1 52.4-55 53.7-55 .3 0 .5 5.7.6 12.8.1 14.1.4 17.2 1.7 17.2.4 0 .6.4.3.9-1.5 2.3 10.5 11 17.8 12.8 2.7.7 12.7.5 16.3-.2 1.5-.4 3.4-.7 4.1-.7.6-.1 1.2-.5 1.2-1 0-.4.9-.8 2-.8s2-.5 2-1.2c0-.6.3-.9.6-.5 1.9 1.9 20.6-14.5 26.5-23.2 9.9-14.8 1.8-22.5-11.5-10.9-1.1 1-2.6 1.8-3.3 1.8-.7 0-1.3.4-1.3 1 0 .5-1.5 1.7-3.2 2.6-1.8.9-3.5 2-3.8 2.3-.6.7-10.5 5.6-13.5 6.6-4.6 1.6-8.5 2.2-9.1 1.4-.3-.5-1-.7-1.5-.4-.5.4-.9-.3-.9-1.4 0-1.1-.3-2.2-.7-2.4-.9-.6-.9-16.5 0-17.4.4-.3.2-1.3-.3-2.3-.5-1-.7-2-.3-2.3.3-.3.7-3.2.9-6.4.1-3.2.5-9.4.8-13.8 1.3-18.6 1.7-26.5 2-35.7.3-9.2 1.4-12.8 3.7-12.8 1.9 0 32.5-15.4 35.3-17.8 1.7-1.3 3.5-3.5 4.2-4.8 1.1-2.1 1-2.6-1.6-4.7-3.4-2.9-5.9-2.9-18.7-.1-1.6.3-3.2.7-3.8.8-.5.1-4.8 1.5-9.4 3-6.5 2.1-8.6 2.4-9.5 1.5-.8-.9-.8-1 .3-.4 1 .6 1.2.4.6-.4-.4-.7-.9-6.3-1-12.4-.2-7.2-.9-12.5-1.9-14.9-3.9-9.3-21.9-16.7-25.7-10.6-1.1 1.7 0 11.4 2 17.8 1.3 4.5-.6 8-2.6 4.6-1.2-2-10.9-7.5-18.2-10.3-5.7-2.1-13.9-4-25.1-5.7-1.9-.3-4.6-.8-6-1.1-1.4-.3-4.7-.7-7.4-1.1-2.8-.3-6.6-1.2-8.5-2.1-2-.8-7.2-1.6-11.7-1.8-4.4-.1-9.5-.6-11.3-1-1.8-.4-4.2-.8-5.4-1-9.7-1.3-17.4-2.9-22.6-4.6-4.5-1.5-15.1-6.9-16.9-8.6-.7-.7-1.6-1.3-2-1.3-1.2 0-10.5-9.3-14.2-14-4.9-6.3-2.4-1.7-32.4-60.5-12.1-23.5-13.2-25.4-22.6-34.5-7-6.8-19.4-14.1-27.3-16-2.3-.6-5.1-1.3-6.2-1.6-2.7-.8-23.9-1.7-24.5-1.1zM193 564c0 .5.5 1 1.2 1 3.5 0 14 16.2 15.2 23.6.2 1.6.5 2.9.6 2.9.1 0 .4 2.2.8 5 1 9.3.4 25.5-1.1 25.5-.5 0-.6.3-.3.8 1.1 1.8-3.8 18.2-8.3 27.3-3.2 6.4-13.3 18.9-15.3 18.9-.5 0-2.3.9-3.9 2.1-2.8 1.9-3 1.9-6.4.3-6.1-2.9-12.3-14-14.2-25.6-1.6-9.6-.5-32.6 1.7-36.8.5-.9.7-2 .4-2.2-.8-.8 4.5-15.6 8.2-23.1 4.7-9.2 15.6-20.2 20.7-20.6.4-.1.7.3.7.9zM1048.2 253.6c-3.5 1.3-7.4 2.6-8.5 2.8-1.2.3-2.2.5-2.2.6 0 .4-10.8 2.9-14.6 3.4-1.9.3-4.5.7-5.8 1-11.1 2.4-62.1 2.6-65.9.2-.6-.3-1.3-.2-1.7.4-.4.6-1.2.7-1.8.3-.7-.4-2.1-.8-3.2-.9-7.9-.7-16.6-1.5-20-1.9-24.4-2.6-50.5-3.5-63.8-2.1-19.8 2-36.1 9.1-48.5 21-5.4 5.1-13.2 15.5-13.2 17.5 0 .6-.4 1.1-.9 1.1-1.7 0-10.3 21.6-13.6 34.5-1.7 6.7-4.3 19.8-5.1 26-.3 2.7-.8 5.9-1 7-.2 1.1-.7 5.5-1 9.8-.3 4.3-.7 8.7-.9 9.7-.6 3.1 1.2 3.3 6.3.6 10.4-5.5 32.7-14.2 41.2-16 1.4-.3 6.5-1.4 11.3-2.5 8.7-1.9 11.2-2.3 23.2-3.7 9.2-1.1 40.8-1.1 42.3-.1.7.6 1.2.6 1.2 0s1.8-.7 4.3-.4c5.5.8 28.8.6 35.2-.3 17.7-2.4 31.9-7.9 45-17.6 8.9-6.5 25.3-23.2 31.5-32 1.4-1.9 2.7-3.7 3-4 .3-.3 1.7-2.1 3-4s2.7-3.7 3-4c.4-.3 1-1.2 1.3-2 .4-.8 3-4.9 5.7-9 2.8-4.1 5.7-8.9 6.5-10.5.9-1.7 2.4-4.4 3.5-6 1-1.7 2.9-5 4.1-7.5 1.3-2.5 2.5-4.7 2.8-5 1.3-1.1 5.1-9 4.4-8.9-.4 0-3.7 1.1-7.1 2.5zM828.6 394.5c-12.4 4.8-23.8 17.1-34.8 37.5-5.2 9.8-11.1 24.9-13.3 34 0 .3-.4 1.5-.9 2.8-.4 1.2-.9 3.4-1.1 5-.2 1.5-.4 2.7-.5 2.7-.2 0-.5 1.6-1.6 7.5-.9 4.9-1.1 28.1-.3 31.7.3 1.2.8 2.6 1.2 2.9.4.4.7 1.4.7 2.3 0 2.1 10.5 12.1 15.5 14.7 10.1 5.4 20.5 7 29 4.6 6.1-1.7 14.4-7.1 18.5-12 1.7-2 4-4.7 5.1-5.8 1-1.2 1.9-2.6 1.9-3.2 0-.6.4-1.2.8-1.4.9-.3 8.2-12.7 9.9-16.8.9-2.3 1.1-2.2 2.8 3 5.7 17.2 13.3 25.9 19.3 22.1 1.7-1 1.9-7.9.7-21.6-.4-5.5-.9-12-1-14.5-.2-2.5-.4-4.5-.5-4.5-.1 0-.3-4.3-.5-9.5s-.7-12.2-1.1-15.5c-.3-3.3-.7-7-.7-8.3-.1-1.2-.5-2.2-1-2.2-.4 0-.6-.4-.3-.8.3-.5-.6-2.1-1.9-3.6-2.5-2.9-2.5-4.4-.5-10.1 1.4-3.9.3-15-2-19.6-3-5.9-13.1-15.4-20.5-19.2-7.2-3.6-16.7-4.5-22.9-2.2zm21 27.3c2.7 4.1 4 7.1 4.9 11.8.2.6.6 2.1 1 3.3.4 1.4.1 2.9-.8 3.9s-1.8 4.7-2.1 9.3c-.4 4.2-.8 8.5-1.1 9.6-.2 1.1-.6 3.8-.9 5.9-1.2 7.9-9.7 29.2-12.5 31.4-.3.3-1.3 1.8-2 3.3-2.1 4.1-11.7 13.5-15.9 15.6-5.7 2.9-10.5 3.2-15.1.9-5-2.5-6.3-5.7-6.3-15.5.1-6.9 3-25.5 4.2-27.1.2-.1.3-.5.4-1 .6-3.1 5.2-16.1 6.4-17.9.7-1.2 1.3-2.5 1.2-2.8-.2-1 6-13.4 7-14 .6-.4.8-1.1.5-1.6-.4-.5-.2-.9.3-.9s1.3-1 1.9-2.3c2.4-5.2 10.4-13.6 15.3-16 6.5-3.3 9.4-2.4 13.6 4.1zM91.7 511.7c-.2.1-2.5.5-5.3.8-8.8 1.1-10.9 1.4-10.9 1.5 0 .2-3.8 1-7 1.4-1.6.2-3.7.6-4.5 1-.8.3-2.8.7-4.5 1-1.6.2-3 .5-3 .6 0 .1-.7.3-1.5.5-15.5 3.2-38.5 10.9-45.3 14.9-2.8 1.7-6.2 4.7-7.5 6.6-2 3-2.3 4.3-1.7 8.5.3 2.7.8 6.3.9 8 .2 1.6.5 3 .6 3 .8 0 2.1 43.2 2 64.5-.3 29.2 0 81.3.3 85 .2 1.9 1 4.6 1.7 6 1.6 3 8.6 10 10 10 .6 0 1 .4 1 .8 0 1 4.5 3.2 6.5 3.2 2.6 0 3.7-4.1 4.1-16.8.3-7 .6-14.8.7-17.5.1-2.6-.2-4.7-.6-4.7-.5 0-.5-.5-.1-1.1.4-.7.7-11.4.8-24 .1-12.5.4-23 .7-23.3.3-.4 4.8-1.8 10-3.2 11.8-3.1 10.3-2.7 16.4-5 1.1-.4 2.7-.8 3.6-1 .8-.2 2.9-1 4.5-1.9 1.6-.8 3.2-1.5 3.6-1.5 1.3 0 16.3-7.4 16.6-8.2.2-.5.9-.8 1.6-.8 3.2 0 14.3-10.5 15.2-14.2 1.2-5.8-5.2-7.1-16.4-3.2-2.6.9-5.4 1.7-6.2 1.9-.8.2-6 1.8-11.5 3.6s-10.7 3.3-11.5 3.4c-.9 0-2 .4-2.5.7-1.1.7-12.9 3.8-16 4.3-1.1.1-3.2.6-4.7 1-2 .5-2.8.3-2.9-.6-.1-.8-.2-6.6-.3-13-.2-6.3-.6-12.1-1-12.7-.3-.6-.2-1.3.4-1.7.6-.4.8-1 .5-1.5-.3-.5-.7-4.8-1-9.7-.5-12.1-1.5-20.5-2.6-22.5-.5-.9-.5-1.9-.1-2.2.9-.5 14.1-5.6 15.7-6 .6-.2 1.8-.6 2.8-.9.9-.4 2.5-1 3.5-1.4.9-.3 2.2-.7 2.7-.9.6-.1 8.9-3 18.5-6.4 9.6-3.4 19.3-6.7 21.5-7.5 8.2-2.7 14.8-5.5 17.3-7.2 1.5-.9 3-1.7 3.3-1.6.4.1 1.4-.6 2.4-1.7 2.4-2.7 1.3-6.6-2.2-7.6-2.6-.7-18-1.3-18.6-.7z"/><path d="M800 631.5c-2.5.6-5.9 1.9-7.6 3-3.4 2.1-9.4 10.1-9.4 12.6 0 .8-.4 1.9-.9 2.5-.5.5-1.6 3.4-2.6 6.4-1.9 5.7-4.6 12.5-7.1 17.3-.8 1.6-1.4 3.3-1.4 3.8 0 1.4-14.5 30.4-16.8 33.7-1.1 1.5-2 2.9-1.9 3.2.1.7-4 7.2-13.9 22.1-8 12-22.2 30.4-30.8 39.9-13.6 14.8-40.4 40-42.7 40-.5 0-.9.4-.9.8 0 .5-3.6 3.5-8.1 6.8-4.4 3.2-8.6 6.5-9.4 7.2-.7.6-1.8 1.2-2.3 1.2-.6 0-1.2.4-1.4.8-.9 2.3-29.5 19.4-47.4 28.4-14.1 7.1-45.2 19.7-52.4 21.3-.9.1-5.4 1.5-10 2.9-4.7 1.4-9.6 2.8-11 3-1.4.3-7.5 1.7-13.7 3-6.1 1.4-13.1 2.8-15.5 3.1-2.4.4-5.2.8-6.3 1-1.1.2-4.5.6-7.5 1-3 .3-6.6.8-8 1.1-5.7 1-26.6 1.8-43.5 1.7-20.8-.2-26.8-.5-45.5-2.9-7.9-1.1-8.9-1.2-13.2-1.9-8.8-1.5-10.1-1.8-23.8-5-6.3-1.6-11.7-2.8-12-2.8-.3 0-1.6-.4-3-.9s-3.2-1.1-4-1.3c-3.9-.8-30.2-10.1-35.8-12.6-3.4-1.6-6.6-2.9-7-2.9-1.4 0-27.7-13.2-28-14.1-.2-.5-1-.9-1.7-.9-3.8 0-48.9-30-53.5-35.5-.7-.8-1.7-1.5-2.2-1.5-.5 0-1.9-1-3.2-2.3-1.2-1.2-4.7-4.3-7.7-6.9-3.1-2.6-7.5-6.6-10-8.9-5.6-5.3-11.6-8-18-8.1-13-.1-23.3 10.4-22.5 22.8.5 6.7 2.6 10.4 9.8 17.2 3.4 3.1 7.6 7 9.3 8.7 2.6 2.5 9.6 8.3 14 11.7.6.5 2.6 2.2 4.5 3.8 1.9 1.7 4.7 3.8 6.3 4.7 1.5 1 2.7 2.1 2.7 2.6 0 .4.5.5 1 .2.6-.3 1-.2 1 .3 0 1.7 45.8 31.2 48.5 31.2.4 0 2 .9 3.6 2.1 1.6 1.1 2.9 1.7 2.9 1.4 0-.3 1.2.2 2.8 1.3 3.2 2.2 26.4 12.6 37.7 17 11.9 4.5 12 4.5 12.5 4.7.3 0 3.7 1.1 7.5 2.4 3.9 1.2 7.7 2.5 8.5 2.7.8.3 1.5.5 1.5.4 0-.1 1.4.4 3 1 1.7.7 3.7 1.3 4.5 1.5.8.2 5.8 1.4 11 2.8s11.2 2.8 13.4 3.1c2.1.4 4.2.8 4.6 1.1.4.3 2.5.7 4.6 1.1 2.2.3 7.5 1.1 11.9 1.9 4.4.7 10.7 1.6 14 2 3.3.4 7.1.9 8.5 1.1 11.5 1.8 58.3 2.5 77 1.2 4.7-.4 8.5-.7 8.5-.8 0 0 2.3-.3 5-.5 5.2-.5 10.8-1.2 16-2 6.1-1 9.1-1.5 11.1-1.9 1.2-.2 3.9-.7 6-1.1 2.2-.4 4.4-.8 4.9-.9 1.2-.3 7.2-1.6 10-2.1 1.1-.2 2.1-.4 2.3-.5.3-.3.6-.4 7.7-1.9 3.3-.7 6.5-1.6 7-1.9.6-.4 1.5-.7 2-.9.6-.1 2.1-.4 3.4-.7 4.5-1 24.5-7.8 35.6-12.2 21.3-8.3 46.1-20.5 61.3-30.1 2.9-1.8 5.5-3.3 5.7-3.3.3 0 2.8-1.6 5.5-3.5s5.2-3.5 5.5-3.5c.3 0 1.1-.4 1.8-1 4.1-3.3 10.9-8 11.6-8 .5 0 1.2-.7 1.5-1.6.4-.9.9-1.4 1.2-1.1.3.3 1.4-.2 2.3-1.1 1.8-1.8 4.9-4.2 9.7-7.7 1.6-1.1 3.5-2.7 4.4-3.5.9-.8 4.1-3.5 7.1-6 17.6-14.5 38.3-35.8 54.7-56.5 12.6-15.8 12-15 15.7-20.5 1.7-2.5 3.5-5.1 4.2-5.7.6-.7 2.6-3.7 4.3-6.5 1.7-2.9 6.2-10.5 10.1-16.8 6.3-10.4 22.8-42.5 23.3-45.3.1-.7 1.1-3.2 2.2-5.7 7.6-17 11.8-29.9 11.8-36.6.1-5.4-.3-6.7-3.2-11-5.3-7.7-14-11.1-23.2-8.9z"/></svg>