<?xml version="1.0" standalone="no"?>
<!DOCTYPE svg PUBLIC "-//W3C//DTD SVG 20010904//EN"
 "http://www.w3.org/TR/2001/REC-SVG-20010904/DTD/svg10.dtd">
<svg version="1.0" xmlns="http://www.w3.org/2000/svg"
 width="1056.000000pt" height="1056.000000pt" viewBox="0 0 1056.000000 1056.000000"
 preserveAspectRatio="xMidYMid meet">
<metadata>
Created by potrace 1.14, written by Peter Selinger 2001-2017
</metadata>
<g transform="translate(0.000000,1056.000000) scale(0.100000,-0.100000)"
fill="#000000" stroke="none">
<path d="M4069 9435 c-2 -1 -47 -6 -99 -10 -127 -10 -160 -13 -190 -19 -14 -2
-47 -7 -75 -10 -27 -3 -75 -10 -105 -16 -30 -6 -67 -13 -82 -15 -15 -2 -35 -6
-45 -9 -10 -3 -34 -8 -53 -11 -19 -3 -53 -11 -75 -16 -22 -6 -41 -11 -42 -11
-2 1 -17 -4 -35 -9 -18 -6 -42 -12 -53 -14 -31 -7 -159 -47 -170 -53 -5 -3
-16 -7 -25 -8 -57 -6 -587 -226 -610 -253 -3 -3 -30 -18 -60 -33 -69 -34 -153
-81 -160 -89 -3 -3 -20 -14 -39 -24 -19 -9 -39 -21 -45 -26 -6 -5 -47 -33 -91
-61 -44 -29 -84 -56 -90 -61 -5 -4 -35 -26 -65 -48 -88 -64 -110 -81 -174
-133 -104 -84 -226 -196 -341 -313 -99 -100 -130 -134 -230 -253 -16 -19 -32
-37 -35 -40 -3 -3 -44 -57 -92 -120 -115 -155 -268 -387 -268 -409 0 -6 -3
-11 -8 -11 -4 0 -13 -15 -21 -32 -8 -18 -17 -35 -21 -38 -7 -6 -170 -334 -170
-343 0 -4 -11 -30 -24 -59 -13 -29 -31 -75 -41 -103 -10 -27 -23 -56 -28 -62
-5 -7 -6 -13 -3 -13 4 0 2 -9 -4 -21 -6 -11 -13 -28 -15 -37 -2 -9 -15 -50
-29 -90 -14 -41 -28 -83 -30 -95 -3 -12 -10 -38 -16 -57 -25 -79 -75 -299 -95
-420 -20 -116 92 -236 215 -233 68 2 122 25 170 73 28 28 51 90 76 203 13 62
33 148 44 192 12 44 23 87 25 95 2 8 4 16 5 18 2 1 4 7 5 12 1 6 3 11 5 13 1
1 3 9 5 17 11 49 79 235 134 367 96 230 308 597 438 758 13 17 37 46 51 66
108 143 335 383 477 504 32 28 63 55 69 60 13 12 111 89 163 128 150 113 353
240 493 309 36 18 67 36 68 40 2 4 8 8 12 8 5 0 46 17 92 39 139 64 420 169
500 187 39 9 53 12 53 14 0 1 8 3 17 5 9 2 32 8 50 14 18 6 44 12 58 15 14 2
43 9 65 14 22 6 54 13 70 16 17 2 55 9 85 15 30 6 71 13 90 15 19 3 35 5 35 6
0 1 18 3 40 5 22 3 56 7 75 9 220 29 693 24 900 -9 19 -4 51 -8 70 -11 100
-14 189 -32 304 -60 34 -8 68 -16 76 -18 82 -20 315 -93 368 -116 12 -6 32
-14 45 -19 39 -15 130 -54 184 -78 29 -13 54 -23 55 -23 2 1 45 -22 96 -49 51
-28 97 -51 102 -51 4 0 10 -3 12 -7 3 -8 33 -26 103 -61 17 -9 39 -24 49 -34
11 -10 23 -18 28 -18 6 0 176 -113 213 -142 6 -4 69 -55 141 -113 192 -153
440 -403 577 -582 136 -177 419 -93 412 122 -1 33 -8 71 -16 85 -12 21 -108
146 -144 187 -159 182 -353 375 -474 473 -24 19 -48 40 -55 46 -31 28 -200
157 -271 204 -44 30 -81 58 -83 62 -2 5 -7 8 -12 8 -4 0 -51 27 -103 60 -53
33 -101 60 -106 60 -6 0 -11 3 -11 8 0 4 -20 16 -45 27 -25 11 -45 24 -45 29
0 5 -3 6 -6 3 -4 -4 -20 3 -35 14 -16 11 -29 17 -29 13 0 -4 -8 0 -17 8 -32
26 -432 200 -493 213 -8 2 -28 9 -45 15 -67 27 -335 103 -405 115 -18 3 -36 7
-39 9 -7 4 -75 18 -106 21 -11 1 -29 4 -40 8 -11 3 -40 8 -65 12 -25 3 -54 7
-65 9 -11 2 -42 7 -70 10 -27 4 -68 9 -90 12 -22 2 -62 7 -90 10 -60 6 -601
14 -606 9z"/>
<path d="M4210 8137 c-3 -3 -23 -8 -45 -12 -73 -12 -67 -10 -164 -52 -30 -13
-70 -35 -87 -48 -18 -14 -36 -25 -39 -25 -12 0 -121 -116 -153 -162 -27 -39
-90 -160 -325 -623 -72 -141 -125 -223 -181 -280 -45 -45 -120 -105 -131 -105
-4 0 -19 -8 -33 -18 -44 -29 -144 -66 -212 -77 -19 -3 -48 -8 -65 -11 -16 -3
-41 -7 -55 -9 -14 -2 -38 -6 -55 -9 -66 -11 -341 -56 -380 -61 -218 -29 -384
-76 -436 -121 -8 -8 -20 -14 -25 -14 -5 0 -24 -14 -41 -31 -18 -16 -33 -28
-33 -25 0 6 -105 -110 -118 -130 -23 -35 -34 -54 -52 -91 -34 -72 -42 -95 -59
-176 -23 -105 -18 -260 9 -333 5 -13 8 -24 6 -24 -3 0 9 -27 25 -60 16 -33 29
-65 29 -70 0 -6 3 -10 8 -10 4 0 13 -14 21 -31 11 -24 225 -250 427 -452 9 -9
-25 2 -41 13 -10 7 -156 6 -185 -2 -77 -19 -242 -146 -263 -200 -3 -10 -11
-18 -17 -18 -5 0 -10 -4 -10 -10 0 -5 -13 -31 -29 -57 -16 -27 -44 -83 -61
-126 -167 -417 -77 -885 195 -1017 99 -48 246 -23 370 64 63 44 168 160 201
221 6 11 22 40 35 65 14 25 36 74 48 110 13 36 25 72 28 80 9 25 16 61 30 160
11 82 8 248 -6 306 -7 29 -13 58 -15 65 -1 8 -8 25 -15 38 -10 18 -10 22 -1
19 15 -5 58 -83 82 -148 45 -122 53 -269 23 -421 -2 -14 -6 -42 -7 -62 -2 -20
-5 -37 -8 -37 -3 0 -6 -12 -6 -27 -1 -26 -19 -145 -30 -203 -3 -14 -7 -41 -9
-60 -3 -19 -7 -46 -10 -60 -3 -14 -7 -43 -11 -65 -3 -22 -8 -53 -11 -70 -24
-136 -22 -260 5 -365 76 -297 374 -523 687 -522 49 1 99 3 110 5 85 20 122 31
133 40 6 5 12 7 12 4 0 -3 54 21 120 53 66 33 123 59 126 59 4 0 10 3 13 8 3
5 42 27 86 49 44 22 135 68 202 102 68 34 126 62 129 61 4 0 10 3 13 8 13 18
175 78 221 83 148 13 257 5 350 -26 46 -16 315 -148 338 -166 6 -6 12 -7 12
-4 0 4 12 -1 28 -12 24 -17 48 -28 70 -33 4 -1 23 -12 42 -23 64 -40 346 -176
364 -176 9 0 25 -4 34 -9 23 -12 134 -24 206 -23 64 2 166 23 221 46 19 8 35
12 35 8 0 -4 4 -2 8 3 4 6 28 21 54 33 25 13 55 32 67 43 11 10 22 19 25 19
11 0 73 61 117 117 105 131 157 287 153 458 -1 50 -3 90 -4 90 -1 0 -4 14 -6
30 -23 152 -54 346 -59 365 0 3 -5 32 -9 65 -5 33 -10 71 -13 85 -2 14 -6 41
-9 60 -3 19 -7 42 -8 50 -8 46 -19 139 -20 165 0 57 15 179 23 189 5 6 10 16
11 21 6 50 42 129 93 205 27 41 524 550 537 550 3 0 5 -57 6 -128 1 -141 4
-172 17 -172 4 0 6 -4 3 -9 -15 -23 105 -110 178 -128 27 -7 127 -5 163 2 15
4 34 7 41 7 6 1 12 5 12 10 0 4 9 8 20 8 11 0 20 5 20 12 0 6 3 9 6 5 19 -19
206 145 265 232 99 148 18 225 -115 109 -11 -10 -26 -18 -33 -18 -7 0 -13 -4
-13 -10 0 -5 -15 -17 -32 -26 -18 -9 -35 -20 -38 -23 -6 -7 -105 -56 -135 -66
-46 -16 -85 -22 -91 -14 -3 5 -10 7 -15 4 -5 -4 -9 3 -9 14 0 11 -3 22 -7 24
-9 6 -9 165 0 174 4 3 2 13 -3 23 -5 10 -7 20 -3 23 3 3 7 32 9 64 1 32 5 94
8 138 13 186 17 265 20 357 3 92 14 128 37 128 19 0 325 154 353 178 17 13 35
35 42 48 11 21 10 26 -16 47 -34 29 -59 29 -187 1 -16 -3 -32 -7 -38 -8 -5 -1
-48 -15 -94 -30 -65 -21 -86 -24 -95 -15 -8 9 -8 10 3 4 10 -6 12 -4 6 4 -4 7
-9 63 -10 124 -2 72 -9 125 -19 149 -39 93 -219 167 -257 106 -11 -17 0 -114
20 -178 13 -45 -6 -80 -26 -46 -12 20 -109 75 -182 103 -57 21 -139 40 -251
57 -19 3 -46 8 -60 11 -14 3 -47 7 -74 11 -28 3 -66 12 -85 21 -20 8 -72 16
-117 18 -44 1 -95 6 -113 10 -18 4 -42 8 -54 10 -97 13 -174 29 -226 46 -45
15 -151 69 -169 86 -7 7 -16 13 -20 13 -12 0 -105 93 -142 140 -49 63 -24 17
-324 605 -121 235 -132 254 -226 345 -70 68 -194 141 -273 160 -23 6 -51 13
-62 16 -27 8 -239 17 -245 11z m-2280 -3217 c0 -5 5 -10 12 -10 35 0 140 -162
152 -236 2 -16 5 -29 6 -29 1 0 4 -22 8 -50 10 -93 4 -255 -11 -255 -5 0 -6
-3 -3 -8 11 -18 -38 -182 -83 -273 -32 -64 -133 -189 -153 -189 -5 0 -23 -9
-39 -21 -28 -19 -30 -19 -64 -3 -61 29 -123 140 -142 256 -16 96 -5 326 17
368 5 9 7 20 4 22 -8 8 45 156 82 231 47 92 156 202 207 206 4 1 7 -3 7 -9z"/>
<path d="M10482 8024 c-35 -13 -74 -26 -85 -28 -12 -3 -22 -5 -22 -6 0 -4
-108 -29 -146 -34 -19 -3 -45 -7 -58 -10 -111 -24 -621 -26 -659 -2 -6 3 -13
2 -17 -4 -4 -6 -12 -7 -18 -3 -7 4 -21 8 -32 9 -79 7 -166 15 -200 19 -244 26
-505 35 -638 21 -198 -20 -361 -91 -485 -210 -54 -51 -132 -155 -132 -175 0
-6 -4 -11 -9 -11 -17 0 -103 -216 -136 -345 -17 -67 -43 -198 -51 -260 -3 -27
-8 -59 -10 -70 -2 -11 -7 -55 -10 -98 -3 -43 -7 -87 -9 -97 -6 -31 12 -33 63
-6 104 55 327 142 412 160 14 3 65 14 113 25 87 19 112 23 232 37 92 11 408
11 423 1 7 -6 12 -6 12 0 0 6 18 7 43 4 55 -8 288 -6 352 3 177 24 319 79 450
176 89 65 253 232 315 320 14 19 27 37 30 40 3 3 17 21 30 40 13 19 27 37 30
40 4 3 10 12 13 20 4 8 30 49 57 90 28 41 57 89 65 105 9 17 24 44 35 60 10
17 29 50 41 75 13 25 25 47 28 50 13 11 51 90 44 89 -4 0 -37 -11 -71 -25z"/>
<path d="M8286 6615 c-124 -48 -238 -171 -348 -375 -52 -98 -111 -249 -133
-340 0 -3 -4 -15 -9 -28 -4 -12 -9 -34 -11 -50 -2 -15 -4 -27 -5 -27 -2 0 -5
-16 -16 -75 -9 -49 -11 -281 -3 -317 3 -12 8 -26 12 -29 4 -4 7 -14 7 -23 0
-21 105 -121 155 -147 101 -54 205 -70 290 -46 61 17 144 71 185 120 17 20 40
47 51 58 10 12 19 26 19 32 0 6 4 12 8 14 9 3 82 127 99 168 9 23 11 22 28
-30 57 -172 133 -259 193 -221 17 10 19 79 7 216 -4 55 -9 120 -10 145 -2 25
-4 45 -5 45 -1 0 -3 43 -5 95 -2 52 -7 122 -11 155 -3 33 -7 70 -7 83 -1 12
-5 22 -10 22 -4 0 -6 4 -3 8 3 5 -6 21 -19 36 -25 29 -25 44 -5 101 14 39 3
150 -20 196 -30 59 -131 154 -205 192 -72 36 -167 45 -229 22z m210 -273 c27
-41 40 -71 49 -118 2 -6 6 -21 10 -33 4 -14 1 -29 -8 -39 -9 -10 -18 -47 -21
-93 -4 -42 -8 -85 -11 -96 -2 -11 -6 -38 -9 -59 -12 -79 -97 -292 -125 -314
-3 -3 -13 -18 -20 -33 -21 -41 -117 -135 -159 -156 -57 -29 -105 -32 -151 -9
-50 25 -63 57 -63 155 1 69 30 255 42 271 2 1 3 5 4 10 6 31 52 161 64 179 7
12 13 25 12 28 -2 10 60 134 70 140 6 4 8 11 5 16 -4 5 -2 9 3 9 5 0 13 10 19
23 24 52 104 136 153 160 65 33 94 24 136 -41z"/>
<path d="M917 5443 c-2 -1 -25 -5 -53 -8 -88 -11 -109 -14 -109 -15 0 -2 -38
-10 -70 -14 -16 -2 -37 -6 -45 -10 -8 -3 -28 -7 -45 -10 -16 -2 -30 -5 -30 -6
0 -1 -7 -3 -15 -5 -155 -32 -385 -109 -453 -149 -28 -17 -62 -47 -75 -66 -20
-30 -23 -43 -17 -85 3 -27 8 -63 9 -80 2 -16 5 -30 6 -30 8 0 21 -432 20 -645
-3 -292 0 -813 3 -850 2 -19 10 -46 17 -60 16 -30 86 -100 100 -100 6 0 10 -4
10 -8 0 -10 45 -32 65 -32 26 0 37 41 41 168 3 70 6 148 7 175 1 26 -2 47 -6
47 -5 0 -5 5 -1 11 4 7 7 114 8 240 1 125 4 230 7 233 3 4 48 18 100 32 118
31 103 27 164 50 11 4 27 8 36 10 8 2 29 10 45 19 16 8 32 15 36 15 13 0 163
74 166 82 2 5 9 8 16 8 32 0 143 105 152 142 12 58 -52 71 -164 32 -26 -9 -54
-17 -62 -19 -8 -2 -60 -18 -115 -36 -55 -18 -107 -33 -115 -34 -9 0 -20 -4
-25 -7 -11 -7 -129 -38 -160 -43 -11 -1 -32 -6 -47 -10 -20 -5 -28 -3 -29 6
-1 8 -2 66 -3 130 -2 63 -6 121 -10 127 -3 6 -2 13 4 17 6 4 8 10 5 15 -3 5
-7 48 -10 97 -5 121 -15 205 -26 225 -5 9 -5 19 -1 22 9 5 141 56 157 60 6 2
18 6 28 9 9 4 25 10 35 14 9 3 22 7 27 9 6 1 89 30 185 64 96 34 193 67 215
75 82 27 148 55 173 72 15 9 30 17 33 16 4 -1 14 6 24 17 24 27 13 66 -22 76
-26 7 -180 13 -186 7z"/>
<path d="M8000 4245 c-25 -6 -59 -19 -76 -30 -34 -21 -94 -101 -94 -126 0 -8
-4 -19 -9 -25 -5 -5 -16 -34 -26 -64 -19 -57 -46 -125 -71 -173 -8 -16 -14
-33 -14 -38 0 -14 -145 -304 -168 -337 -11 -15 -20 -29 -19 -32 1 -7 -40 -72
-139 -221 -80 -120 -222 -304 -308 -399 -136 -148 -404 -400 -427 -400 -5 0
-9 -4 -9 -8 0 -5 -36 -35 -81 -68 -44 -32 -86 -65 -94 -72 -7 -6 -18 -12 -23
-12 -6 0 -12 -4 -14 -8 -9 -23 -295 -194 -474 -284 -141 -71 -452 -197 -524
-213 -9 -1 -54 -15 -100 -29 -47 -14 -96 -28 -110 -30 -14 -3 -75 -17 -137
-30 -61 -14 -131 -28 -155 -31 -24 -4 -52 -8 -63 -10 -11 -2 -45 -6 -75 -10
-30 -3 -66 -8 -80 -11 -57 -10 -266 -18 -435 -17 -208 2 -268 5 -455 29 -79
11 -89 12 -132 19 -88 15 -101 18 -238 50 -63 16 -117 28 -120 28 -3 0 -16 4
-30 9 -14 5 -32 11 -40 13 -39 8 -302 101 -358 126 -34 16 -66 29 -70 29 -14
0 -277 132 -280 141 -2 5 -10 9 -17 9 -38 0 -489 300 -535 355 -7 8 -17 15
-22 15 -5 0 -19 10 -32 23 -12 12 -47 43 -77 69 -31 26 -75 66 -100 89 -56 53
-116 80 -180 81 -130 1 -233 -104 -225 -228 5 -67 26 -104 98 -172 34 -31 76
-70 93 -87 26 -25 96 -83 140 -117 6 -5 26 -22 45 -38 19 -17 47 -38 63 -47
15 -10 27 -21 27 -26 0 -4 5 -5 10 -2 6 3 10 2 10 -3 0 -17 458 -312 485 -312
4 0 20 -9 36 -21 16 -11 29 -17 29 -14 0 3 12 -2 28 -13 32 -22 264 -126 377
-170 119 -45 120 -45 125 -47 3 0 37 -11 75 -24 39 -12 77 -25 85 -27 8 -3 15
-5 15 -4 0 1 14 -4 30 -10 17 -7 37 -13 45 -15 8 -2 58 -14 110 -28 52 -14
112 -28 134 -31 21 -4 42 -8 46 -11 4 -3 25 -7 46 -11 22 -3 75 -11 119 -19
44 -7 107 -16 140 -20 33 -4 71 -9 85 -11 115 -18 583 -25 770 -12 47 4 85 7
85 8 0 0 23 3 50 5 52 5 108 12 160 20 61 10 91 15 111 19 12 2 39 7 60 11 22
4 44 8 49 9 12 3 72 16 100 21 11 2 21 4 23 5 3 3 6 4 77 19 33 7 65 16 70 19
6 4 15 7 20 9 6 1 21 4 34 7 45 10 245 78 356 122 213 83 461 205 613 301 29
18 55 33 57 33 3 0 28 16 55 35 27 19 52 35 55 35 3 0 11 4 18 10 41 33 109
80 116 80 5 0 12 7 15 16 4 9 9 14 12 11 3 -3 14 2 23 11 18 18 49 42 97 77
16 11 35 27 44 35 9 8 41 35 71 60 176 145 383 358 547 565 126 158 120 150
157 205 17 25 35 51 42 57 6 7 26 37 43 65 17 29 62 105 101 168 63 104 228
425 233 453 1 7 11 32 22 57 76 170 118 299 118 366 1 54 -3 67 -32 110 -53
77 -140 111 -232 89z"/>
</g>
</svg>
